<svg width="30" height="30" viewBox="0 0 30 30" fill="none" xmlns="http://www.w3.org/2000/svg">
<path d="M25.0451 28.6507L22 25.38" stroke="#FFEA00" stroke-width="2" stroke-linecap="round"/>
<mask id="path-2-inside-1_24_376" fill="white">
<path d="M28.6072 8.46003C28.8133 8.60627 29.1007 8.55861 29.2294 8.34118C29.8659 7.26589 30.1215 6.00189 29.946 4.75564C29.7491 3.35781 29.0248 2.0883 27.9217 1.20756C26.8185 0.326816 25.4201 -0.0983782 24.0134 0.0192048C22.7592 0.124036 21.5832 0.653217 20.6755 1.51204C20.492 1.6857 20.5092 1.97653 20.6974 2.14507C20.8857 2.31362 21.1735 2.2957 21.3598 2.12508C22.1094 1.43887 23.0684 1.01638 24.0896 0.931022C25.2634 0.832907 26.4302 1.1877 27.3508 1.92262C28.2713 2.65753 28.8757 3.71685 29.0399 4.88324C29.1828 5.89795 28.9832 6.92677 28.48 7.80963C28.3549 8.02915 28.4012 8.31379 28.6072 8.46003Z"/>
</mask>
<path d="M28.6072 8.46003C28.8133 8.60627 29.1007 8.55861 29.2294 8.34118C29.8659 7.26589 30.1215 6.00189 29.946 4.75564C29.7491 3.35781 29.0248 2.0883 27.9217 1.20756C26.8185 0.326816 25.4201 -0.0983782 24.0134 0.0192048C22.7592 0.124036 21.5832 0.653217 20.6755 1.51204C20.492 1.6857 20.5092 1.97653 20.6974 2.14507C20.8857 2.31362 21.1735 2.2957 21.3598 2.12508C22.1094 1.43887 23.0684 1.01638 24.0896 0.931022C25.2634 0.832907 26.4302 1.1877 27.3508 1.92262C28.2713 2.65753 28.8757 3.71685 29.0399 4.88324C29.1828 5.89795 28.9832 6.92677 28.48 7.80963C28.3549 8.02915 28.4012 8.31379 28.6072 8.46003Z" fill="#FFEA00" stroke="#FFEA00" stroke-width="4" mask="url(#path-2-inside-1_24_376)"/>
<mask id="path-3-inside-2_24_376" fill="white">
<path d="M1.39276 8.46003C1.18672 8.60627 0.899303 8.55861 0.770598 8.34118C0.134101 7.26589 -0.121509 6.00189 0.0540011 4.75564C0.25086 3.35781 0.975174 2.0883 2.07835 1.20756C3.18152 0.326816 4.57991 -0.0983782 5.98664 0.0192048C7.2408 0.124036 8.41682 0.653217 9.32445 1.51204C9.50799 1.6857 9.49081 1.97653 9.30257 2.14507C9.11434 2.31362 8.82651 2.2957 8.64015 2.12508C7.89065 1.43887 6.93158 1.01638 5.91042 0.931022C4.73661 0.832907 3.56975 1.1877 2.64923 1.92262C1.72871 2.65753 1.12432 3.71685 0.960057 4.88324C0.817154 5.89795 1.01677 6.92677 1.51996 7.80963C1.64508 8.02915 1.59881 8.31379 1.39276 8.46003Z"/>
</mask>
<path d="M1.39276 8.46003C1.18672 8.60627 0.899303 8.55861 0.770598 8.34118C0.134101 7.26589 -0.121509 6.00189 0.0540011 4.75564C0.25086 3.35781 0.975174 2.0883 2.07835 1.20756C3.18152 0.326816 4.57991 -0.0983782 5.98664 0.0192048C7.2408 0.124036 8.41682 0.653217 9.32445 1.51204C9.50799 1.6857 9.49081 1.97653 9.30257 2.14507C9.11434 2.31362 8.82651 2.2957 8.64015 2.12508C7.89065 1.43887 6.93158 1.01638 5.91042 0.931022C4.73661 0.832907 3.56975 1.1877 2.64923 1.92262C1.72871 2.65753 1.12432 3.71685 0.960057 4.88324C0.817154 5.89795 1.01677 6.92677 1.51996 7.80963C1.64508 8.02915 1.59881 8.31379 1.39276 8.46003Z" fill="#FFEA00" stroke="#FFEA00" stroke-width="4" mask="url(#path-3-inside-2_24_376)"/>
<path d="M5.0752 28.5903L8.12031 25.376" stroke="#FFEA00" stroke-width="2" stroke-linecap="round"/>
<circle cx="15.1128" cy="14.7744" r="12.0827" stroke="#FFEA00" stroke-width="2"/>
<path d="M15.3 10V20.7707" stroke="#FFEA00" stroke-width="2" stroke-linecap="round"/>
<path d="M9.79999 15H20.5707" stroke="#FFEA00" stroke-width="2" stroke-linecap="round"/>
</svg>
